<?xml version="1.0" encoding="utf-8"?><svg xmlns="http://www.w3.org/2000/svg" xmlns:xlink="http://www.w3.org/1999/xlink"><symbol fill="none" viewBox="0 0 225 72" id="footer-logo" xmlns="http://www.w3.org/2000/svg"><path d="M70.538 36.29c-1.1.632-2.435 1.132-4.005 1.499-1.57.367-3.2.55-4.892.55-2.283 0-4.23-.275-5.84-.825-1.59-.55-2.793-1.315-3.608-2.294-.795-.978-1.193-2.11-1.193-3.394 0-1.12.306-2.11.917-2.966.612-.856 1.458-1.518 2.538-1.987-.836-.428-1.478-1.02-1.926-1.774a5.161 5.161 0 0 1-.642-2.538c0-1.182.367-2.262 1.1-3.24.755-.98 1.896-1.764 3.425-2.355s3.415-.887 5.657-.887c1.406 0 2.793.133 4.158.398 1.366.265 2.569.621 3.608 1.07l-1.65 4.525a14.408 14.408 0 0 0-5.872-1.253c-1.447 0-2.527.193-3.24.58-.714.367-1.07.887-1.07 1.56 0 1.223.886 1.835 2.66 1.835h6.053v4.617h-6.451c-1.04 0-1.825.173-2.355.52-.53.326-.795.815-.795 1.467 0 .693.388 1.233 1.162 1.62.775.388 1.978.582 3.608.582 1.162 0 2.355-.153 3.578-.459 1.243-.326 2.324-.764 3.24-1.315l1.835 4.465ZM86.122 29.227c1.896.632 2.844 1.937 2.844 3.914 0 1.488-.58 2.66-1.743 3.516-1.162.836-2.874 1.254-5.137 1.254H72.76V21.338h8.898c2.161 0 3.832.377 5.015 1.132 1.203.754 1.804 1.814 1.804 3.18 0 .795-.204 1.498-.612 2.11-.407.611-.988 1.1-1.743 1.467Zm-8.164-1.223h3.18c1.346 0 2.018-.5 2.018-1.498 0-.958-.672-1.437-2.018-1.437h-3.18v2.935Zm3.609 6.146c1.406 0 2.11-.51 2.11-1.529s-.684-1.529-2.05-1.529h-3.669v3.058h3.609ZM99.667 32.01H97.71v5.901H91.9V21.338h5.81v6.116h2.08l4.066-6.116h6.146l-5.565 7.95 5.932 8.623h-6.849l-3.853-5.901ZM129.174 21.338v16.573h-5.81V25.955h-4.189l-.122 2.538c-.082 2.161-.296 3.945-.642 5.351-.347 1.407-.918 2.508-1.713 3.303-.795.774-1.885 1.162-3.271 1.162-.714 0-1.652-.133-2.814-.398l.245-4.74c.367.041.612.062.734.062.632 0 1.111-.204 1.437-.612.326-.407.55-.948.673-1.62.122-.693.204-1.61.244-2.752l.245-6.91h14.983ZM150.14 21.338v16.573h-5.535v-1.743a6.122 6.122 0 0 1-2.201 1.498 6.956 6.956 0 0 1-2.691.52c-2.161 0-3.883-.632-5.168-1.895-1.263-1.264-1.895-3.16-1.895-5.688v-9.265h5.809v8.317c0 2.385.928 3.578 2.783 3.578.917 0 1.661-.316 2.232-.948.571-.652.856-1.641.856-2.966v-7.98h5.81ZM171.682 21.338v13.546c0 3.078-.835 5.381-2.507 6.91-1.671 1.55-4.077 2.324-7.216 2.324-1.631 0-3.16-.183-4.587-.55-1.426-.367-2.639-.907-3.638-1.62l2.11-4.068c.672.55 1.518.979 2.538 1.285 1.039.326 2.058.489 3.057.489 1.529 0 2.65-.336 3.364-1.01.713-.672 1.07-1.67 1.07-2.996v-.55c-1.121 1.305-2.762 1.957-4.923 1.957-1.468 0-2.823-.326-4.067-.979a7.719 7.719 0 0 1-2.966-2.813c-.734-1.223-1.1-2.63-1.1-4.22 0-1.569.366-2.955 1.1-4.158a7.43 7.43 0 0 1 2.966-2.813c1.244-.672 2.599-1.009 4.067-1.009 2.365 0 4.097.765 5.198 2.294v-2.019h5.534Zm-9.356 11.1c1.04 0 1.896-.316 2.568-.948.693-.632 1.04-1.447 1.04-2.446 0-1-.336-1.804-1.009-2.416-.673-.632-1.539-.948-2.599-.948-1.06 0-1.937.316-2.63.948-.672.612-1.009 1.417-1.009 2.416 0 .999.347 1.814 1.04 2.446.693.632 1.559.948 2.599.948ZM60.426 46.01v9.979h-2.794v-7.741H53.84v7.74h-2.78V46.01h9.366ZM66.536 48.134c.846 0 1.583.161 2.21.484a3.35 3.35 0 0 1 1.44 1.398c.342.598.513 1.302.513 2.11 0 .798-.157 1.5-.47 2.11a3.417 3.417 0 0 1-1.326 1.396c-.57.323-1.231.485-1.982.485-.884 0-1.577-.271-2.081-.813v3.45h-2.709v-6.6c0-.799.181-1.502.542-2.11a3.635 3.635 0 0 1 1.54-1.411c.665-.333 1.44-.5 2.323-.5Zm-.128 5.83c.485 0 .874-.166 1.169-.499.304-.342.456-.789.456-1.34 0-.55-.152-.993-.456-1.325-.295-.343-.684-.514-1.169-.514s-.874.171-1.169.514c-.294.332-.442.774-.442 1.325 0 .561.143 1.008.428 1.34.294.333.689.5 1.183.5ZM75.814 56.117c-.827 0-1.573-.171-2.238-.513a3.924 3.924 0 0 1-1.568-1.426c-.37-.608-.556-1.297-.556-2.067 0-.76.185-1.444.556-2.053a3.844 3.844 0 0 1 1.554-1.411c.665-.342 1.416-.513 2.252-.513.837 0 1.587.17 2.253.513a3.727 3.727 0 0 1 1.553 1.411c.371.599.556 1.283.556 2.053s-.185 1.459-.556 2.067a3.823 3.823 0 0 1-1.553 1.426c-.666.342-1.416.513-2.253.513Zm0-2.153c.475 0 .865-.161 1.17-.484.303-.333.455-.79.455-1.369 0-.57-.152-1.017-.456-1.34-.304-.323-.694-.485-1.169-.485-.475 0-.865.162-1.169.485-.304.323-.456.77-.456 1.34 0 .58.152 1.036.456 1.369.304.323.694.484 1.17.484ZM85.538 54.05c.37 0 .689-.052.955-.157.276-.105.551-.276.827-.513l1.411 1.482c-.732.837-1.825 1.255-3.279 1.255-.903 0-1.696-.171-2.38-.513a3.881 3.881 0 0 1-1.597-1.426c-.37-.608-.556-1.297-.556-2.067 0-.76.185-1.44.556-2.038.37-.609.88-1.084 1.525-1.426.656-.342 1.388-.513 2.196-.513.75 0 1.435.157 2.053.47a3.55 3.55 0 0 1 1.496 1.355c.371.589.556 1.292.556 2.11l-5.517 1.054c.295.618.88.927 1.754.927Zm-.328-3.992c-.466 0-.846.148-1.14.442-.295.285-.461.699-.5 1.24l3.137-.613a1.405 1.405 0 0 0-.542-.77c-.266-.199-.584-.299-.955-.299ZM94.214 53.237H93.3v2.752h-2.708v-7.727H93.3v2.851h.97l1.896-2.85h2.865l-2.594 3.706 2.765 4.02H96.01l-1.796-2.752ZM110.165 48.134c.951 0 1.706.285 2.267.855.57.57.855 1.43.855 2.58v4.42h-2.708V52.01c0-.542-.105-.94-.314-1.197-.199-.257-.485-.385-.855-.385-.409 0-.737.142-.984.428-.247.285-.37.717-.37 1.297v3.834h-2.709v-3.977c0-1.055-.39-1.582-1.169-1.582-.418 0-.751.142-.998.428-.247.285-.37.717-.37 1.297v3.834h-2.709v-7.726h2.58v.813a2.661 2.661 0 0 1 1.012-.699c.4-.161.832-.242 1.298-.242.541 0 1.026.1 1.454.3.427.199.774.503 1.04.912.304-.39.689-.69 1.155-.899a3.68 3.68 0 0 1 1.525-.313ZM114.927 48.262h2.694v2.865h2.78v-2.865h2.709v7.727h-2.709V53.28h-2.78v2.709h-2.694v-7.727ZM128.615 56.217c-2.557 0-3.835-1.098-3.835-3.293v-4.662h2.694v2.452c.2-.133.466-.242.798-.328a4.844 4.844 0 0 1 1.169-.128c.951 0 1.697.242 2.238.727.542.475.813 1.183.813 2.124 0 1.017-.352 1.791-1.055 2.323-.694.523-1.635.785-2.822.785Zm4.518-7.955h2.709v7.727h-2.709v-7.727Zm-4.518 6.101c.37 0 .651-.109.841-.328.19-.218.285-.508.285-.87 0-.35-.095-.626-.285-.826-.19-.2-.466-.3-.827-.3a1.57 1.57 0 0 0-.684.143c-.2.095-.357.224-.471.385v.599c0 .37.095.665.285.884.19.209.475.313.856.313ZM141.752 54.05c.371 0 .689-.052.955-.157.276-.105.551-.276.827-.513l1.411 1.482c-.732.837-1.825 1.255-3.279 1.255-.902 0-1.696-.171-2.38-.513-.684-.343-1.217-.818-1.597-1.426-.37-.608-.556-1.297-.556-2.067 0-.76.186-1.44.556-2.038a3.868 3.868 0 0 1 1.526-1.426c.655-.342 1.387-.513 2.195-.513a4.47 4.47 0 0 1 2.053.47 3.546 3.546 0 0 1 1.496 1.355c.371.589.556 1.292.556 2.11l-5.516 1.054c.294.618.879.927 1.753.927Zm-.328-3.992c-.466 0-.846.148-1.14.442-.295.285-.461.699-.499 1.24l3.136-.613a1.406 1.406 0 0 0-.542-.77c-.266-.199-.584-.299-.955-.299ZM154.833 56.117c-.855 0-1.62-.171-2.295-.513a3.908 3.908 0 0 1-1.583-1.426c-.37-.608-.555-1.297-.555-2.067 0-.77.185-1.454.555-2.053a3.81 3.81 0 0 1 1.583-1.411c.675-.342 1.44-.513 2.295-.513.874 0 1.63.19 2.267.57.636.37 1.088.889 1.354 1.554l-2.096 1.069c-.351-.694-.865-1.04-1.539-1.04-.485 0-.889.16-1.212.484-.314.323-.47.77-.47 1.34 0 .58.156 1.036.47 1.369.323.323.727.484 1.212.484.674 0 1.188-.347 1.539-1.04l2.096 1.069a3.155 3.155 0 0 1-1.354 1.568c-.637.37-1.393.556-2.267.556ZM167.541 48.262v7.727h-2.58v-.813a2.855 2.855 0 0 1-1.026.698c-.39.162-.808.243-1.255.243-1.007 0-1.81-.295-2.409-.884-.589-.59-.884-1.473-.884-2.651v-4.32h2.709v3.878c0 1.111.432 1.667 1.297 1.667.428 0 .774-.147 1.04-.442.267-.304.4-.765.4-1.382v-3.72h2.708ZM173.237 56.117c-.855 0-1.621-.171-2.295-.513a3.908 3.908 0 0 1-1.583-1.426c-.37-.608-.556-1.297-.556-2.067 0-.77.186-1.454.556-2.053a3.81 3.81 0 0 1 1.583-1.411c.674-.342 1.44-.513 2.295-.513.874 0 1.63.19 2.266.57.637.37 1.089.889 1.355 1.554l-2.096 1.069c-.351-.694-.865-1.04-1.539-1.04-.485 0-.889.16-1.212.484-.314.323-.471.77-.471 1.34 0 .58.157 1.036.471 1.369.323.323.727.484 1.212.484.674 0 1.188-.347 1.539-1.04l2.096 1.069a3.152 3.152 0 0 1-1.355 1.568c-.636.37-1.392.556-2.266.556ZM188.055 48.134c.95 0 1.706.285 2.266.855.571.57.856 1.43.856 2.58v4.42h-2.709V52.01c0-.542-.104-.94-.313-1.197-.2-.257-.485-.385-.856-.385-.408 0-.736.142-.983.428-.247.285-.371.717-.371 1.297v3.834h-2.708v-3.977c0-1.055-.39-1.582-1.169-1.582-.419 0-.751.142-.998.428-.247.285-.371.717-.371 1.297v3.834h-2.708v-7.726h2.58v.813a2.654 2.654 0 0 1 1.012-.699 3.423 3.423 0 0 1 1.297-.242c.542 0 1.027.1 1.454.3.428.199.775.503 1.041.912.304-.39.689-.69 1.155-.899.465-.209.974-.313 1.525-.313ZM196.908 54.05c.371 0 .689-.052.955-.157.276-.105.551-.276.827-.513l1.411 1.482c-.732.837-1.824 1.255-3.279 1.255-.902 0-1.696-.171-2.38-.513-.684-.343-1.217-.818-1.597-1.426-.37-.608-.556-1.297-.556-2.067 0-.76.186-1.44.556-2.038a3.868 3.868 0 0 1 1.526-1.426c.655-.342 1.387-.513 2.195-.513a4.47 4.47 0 0 1 2.053.47 3.546 3.546 0 0 1 1.496 1.355c.371.589.556 1.292.556 2.11l-5.516 1.054c.294.618.879.927 1.753.927Zm-.328-3.992c-.466 0-.846.148-1.14.442-.295.285-.461.699-.499 1.24l3.136-.613a1.406 1.406 0 0 0-.542-.77c-.266-.199-.584-.299-.955-.299ZM209.461 55.989v-4.063l-1.981 3.378h-1.155l-1.924-3.435v4.12h-2.438v-7.727h2.851l2.153 4.034 2.366-4.034h2.552l.014 7.727h-2.438ZM217.404 56.217c-2.556 0-3.834-1.098-3.834-3.293v-4.662h2.694v2.452c.2-.133.466-.242.798-.328a4.838 4.838 0 0 1 1.169-.128c.951 0 1.697.242 2.238.727.542.475.813 1.183.813 2.124 0 1.017-.352 1.791-1.055 2.323-.694.523-1.635.785-2.823.785Zm4.519-7.955h2.709v7.727h-2.709v-7.727Zm-4.519 6.101c.371 0 .651-.109.841-.328.191-.218.286-.508.286-.87 0-.35-.095-.626-.286-.826-.19-.2-.465-.3-.826-.3-.257 0-.485.048-.685.143a1.188 1.188 0 0 0-.47.385v.599c0 .37.095.665.285.884.19.209.475.313.855.313Z" fill="#fff"/><path d="m9.345 42.715 8.005-18.44h2.686v5.217l-5.681 13.223h4.235v-2.376c0-.579.964-.62 1.446-.569v7.283c-1.322 0-1.515-.448-1.446-.671v-2.066h-5.01L1.184 72H.72l3.15-9.555s-2.788-1.085-1.859-3.41c.93-2.323 6.508-14.72 6.508-14.72H2.01v-1.6h7.335Z" fill="#F90"/><path d="m30.211 42.715-8.005-18.44H19.52v5.217L25.2 42.715h-4.235v-2.376c0-.579-.964-.62-1.446-.569v7.283c1.322 0 1.515-.448 1.446-.671v-2.066h5.01L38.372 72h.465l-3.15-9.555s2.788-1.085 1.859-3.41c-.93-2.323-6.508-14.72-6.508-14.72h6.508v-1.6H30.21Z" fill="#F90"/><path fill-rule="evenodd" clip-rule="evenodd" d="M19.83 21.59a5.475 5.475 0 1 0 0-10.95 5.475 5.475 0 0 0 0 10.95Zm0 2.995a8.47 8.47 0 1 0 0-16.94 8.47 8.47 0 0 0 0 16.94Z" fill="#fff"/><path d="M18.28 0h3.1v8.16h-3.1V0Z" fill="#fff"/></symbol><symbol fill="none" viewBox="0 0 226 72" id="header-logo" xmlns="http://www.w3.org/2000/svg"><path d="M70.538 36.29c-1.1.633-2.435 1.132-4.005 1.499-1.57.367-3.2.55-4.892.55-2.283 0-4.23-.275-5.84-.825-1.59-.55-2.793-1.315-3.608-2.294-.795-.978-1.193-2.11-1.193-3.394 0-1.12.306-2.11.917-2.966.612-.856 1.458-1.518 2.538-1.987-.836-.428-1.478-1.02-1.926-1.774a5.161 5.161 0 0 1-.642-2.537c0-1.183.367-2.263 1.1-3.242.755-.978 1.896-1.763 3.425-2.354 1.529-.591 3.415-.887 5.657-.887 1.406 0 2.793.133 4.158.398 1.366.265 2.569.622 3.608 1.07l-1.65 4.525a14.408 14.408 0 0 0-5.872-1.253c-1.447 0-2.527.193-3.24.58-.714.368-1.07.887-1.07 1.56 0 1.223.886 1.835 2.66 1.835h6.053v4.617h-6.451c-1.04 0-1.825.173-2.355.52-.53.326-.795.815-.795 1.467 0 .693.388 1.234 1.162 1.62.775.388 1.978.582 3.608.582 1.162 0 2.355-.153 3.578-.459 1.243-.326 2.324-.764 3.24-1.315l1.835 4.465ZM86.122 29.227c1.896.632 2.844 1.937 2.844 3.914 0 1.488-.58 2.66-1.743 3.517-1.162.835-2.874 1.253-5.137 1.253H72.76V21.338h8.898c2.161 0 3.832.378 5.015 1.132 1.203.754 1.804 1.814 1.804 3.18 0 .795-.204 1.498-.612 2.11-.407.611-.988 1.1-1.743 1.467Zm-8.164-1.223h3.18c1.346 0 2.018-.5 2.018-1.498 0-.958-.672-1.437-2.018-1.437h-3.18v2.935Zm3.609 6.146c1.406 0 2.11-.51 2.11-1.529s-.684-1.529-2.05-1.529h-3.669v3.058h3.609ZM99.667 32.01H97.71v5.901H91.9V21.338h5.81v6.116h2.08l4.066-6.116h6.146l-5.565 7.95 5.932 8.623h-6.849l-3.853-5.901ZM129.174 21.338v16.573h-5.81V25.956h-4.189l-.122 2.538c-.082 2.16-.296 3.944-.642 5.35-.347 1.407-.918 2.508-1.713 3.303-.795.774-1.885 1.162-3.271 1.162-.714 0-1.652-.133-2.814-.398l.245-4.74c.367.041.612.062.734.062.632 0 1.111-.204 1.437-.612.326-.407.55-.948.673-1.62.122-.693.204-1.61.244-2.752l.245-6.91h14.983ZM150.14 21.338v16.573h-5.535v-1.743a6.122 6.122 0 0 1-2.201 1.498 6.956 6.956 0 0 1-2.691.52c-2.161 0-3.883-.632-5.168-1.895-1.263-1.264-1.895-3.16-1.895-5.688v-9.265h5.809v8.317c0 2.385.928 3.578 2.783 3.578.917 0 1.661-.316 2.232-.948.571-.652.856-1.64.856-2.966v-7.98h5.81ZM171.682 21.338v13.546c0 3.078-.835 5.382-2.507 6.91-1.671 1.55-4.077 2.324-7.216 2.324-1.631 0-3.16-.183-4.587-.55-1.426-.367-2.639-.907-3.638-1.62l2.11-4.067c.672.55 1.518.978 2.538 1.284 1.039.326 2.058.489 3.057.489 1.529 0 2.65-.336 3.364-1.009.713-.673 1.07-1.672 1.07-2.997v-.55c-1.121 1.305-2.762 1.957-4.923 1.957-1.468 0-2.823-.326-4.067-.978a7.717 7.717 0 0 1-2.966-2.813c-.734-1.224-1.1-2.63-1.1-4.22 0-1.57.366-2.956 1.1-4.159a7.43 7.43 0 0 1 2.966-2.813c1.244-.672 2.599-1.009 4.067-1.009 2.365 0 4.097.765 5.198 2.294v-2.018h5.534Zm-9.356 11.1c1.04 0 1.896-.316 2.568-.948.693-.632 1.04-1.447 1.04-2.446 0-.999-.336-1.804-1.009-2.416-.673-.632-1.539-.948-2.599-.948-1.06 0-1.937.316-2.63.948-.672.612-1.009 1.417-1.009 2.416 0 .999.347 1.814 1.04 2.446.693.632 1.559.948 2.599.948ZM60.426 46.01v9.979h-2.794v-7.741H53.84v7.74h-2.78V46.01h9.366ZM66.536 48.134c.846 0 1.583.161 2.21.485a3.35 3.35 0 0 1 1.44 1.397c.342.598.513 1.302.513 2.11 0 .798-.157 1.501-.47 2.11a3.417 3.417 0 0 1-1.326 1.396c-.57.323-1.231.485-1.982.485-.884 0-1.577-.27-2.081-.813v3.45h-2.709v-6.6c0-.798.181-1.502.542-2.11a3.635 3.635 0 0 1 1.54-1.411c.665-.333 1.44-.5 2.323-.5Zm-.128 5.83c.485 0 .874-.166 1.169-.499.304-.342.456-.788.456-1.34 0-.55-.152-.993-.456-1.325-.295-.342-.684-.514-1.169-.514s-.874.172-1.169.514c-.294.332-.442.774-.442 1.325 0 .561.143 1.008.428 1.34.294.333.689.5 1.183.5ZM75.814 56.117c-.827 0-1.573-.171-2.238-.513a3.924 3.924 0 0 1-1.568-1.426c-.37-.608-.556-1.297-.556-2.067 0-.76.185-1.444.556-2.053a3.845 3.845 0 0 1 1.554-1.41c.665-.343 1.416-.514 2.252-.514.837 0 1.587.171 2.253.513a3.728 3.728 0 0 1 1.553 1.411c.371.6.556 1.283.556 2.053s-.185 1.459-.556 2.067a3.823 3.823 0 0 1-1.553 1.426c-.666.342-1.416.513-2.253.513Zm0-2.153c.475 0 .865-.161 1.17-.484.303-.333.455-.79.455-1.369 0-.57-.152-1.017-.456-1.34-.304-.323-.694-.485-1.169-.485-.475 0-.865.162-1.169.485-.304.323-.456.77-.456 1.34 0 .58.152 1.036.456 1.369.304.323.694.484 1.17.484ZM85.538 54.05c.37 0 .689-.052.955-.157.276-.105.551-.276.827-.513l1.411 1.482c-.732.837-1.825 1.255-3.279 1.255-.903 0-1.696-.171-2.38-.513a3.881 3.881 0 0 1-1.597-1.426c-.37-.608-.556-1.297-.556-2.067 0-.76.185-1.44.556-2.038.37-.609.88-1.084 1.525-1.426.656-.342 1.388-.513 2.196-.513.75 0 1.435.157 2.053.47a3.55 3.55 0 0 1 1.496 1.355c.371.589.556 1.292.556 2.11l-5.517 1.054c.295.618.88.927 1.754.927Zm-.328-3.992c-.466 0-.846.148-1.14.442-.295.285-.461.699-.5 1.24l3.137-.613a1.405 1.405 0 0 0-.542-.77c-.266-.199-.584-.299-.955-.299ZM94.214 53.237H93.3v2.752h-2.708v-7.727H93.3v2.851h.97l1.896-2.85h2.865l-2.594 3.706 2.765 4.02H96.01l-1.796-2.752ZM110.165 48.134c.951 0 1.706.285 2.267.855.57.57.855 1.43.855 2.58v4.42h-2.708V52.01c0-.541-.105-.94-.314-1.197-.199-.257-.485-.385-.855-.385-.409 0-.737.143-.984.428-.247.285-.37.717-.37 1.297v3.835h-2.709V52.01c0-1.055-.39-1.582-1.169-1.582-.418 0-.751.143-.998.428-.247.285-.37.717-.37 1.297v3.835h-2.709v-7.727h2.58v.813a2.659 2.659 0 0 1 1.012-.699 3.43 3.43 0 0 1 1.298-.242c.541 0 1.026.1 1.454.3.427.199.774.503 1.04.912.304-.39.689-.69 1.155-.898a3.682 3.682 0 0 1 1.525-.314ZM114.927 48.262h2.694v2.865h2.78v-2.865h2.709v7.727h-2.709V53.28h-2.78v2.709h-2.694v-7.727ZM128.615 56.217c-2.557 0-3.835-1.098-3.835-3.293v-4.662h2.694v2.452c.2-.133.466-.242.798-.328a4.84 4.84 0 0 1 1.169-.128c.951 0 1.697.242 2.238.727.542.475.813 1.183.813 2.124 0 1.017-.352 1.791-1.055 2.324-.694.522-1.635.784-2.822.784Zm4.518-7.955h2.709v7.727h-2.709v-7.727Zm-4.518 6.102c.37 0 .651-.11.841-.328.19-.219.285-.509.285-.87 0-.352-.095-.627-.285-.827-.19-.2-.466-.3-.827-.3a1.57 1.57 0 0 0-.684.143c-.2.096-.357.224-.471.385v.6c0 .37.095.664.285.883.19.209.475.314.856.314ZM141.752 54.05c.371 0 .689-.052.955-.157.276-.105.551-.276.827-.513l1.411 1.482c-.732.837-1.825 1.255-3.279 1.255-.902 0-1.696-.171-2.38-.513-.684-.342-1.217-.818-1.597-1.426-.37-.608-.556-1.297-.556-2.067 0-.76.186-1.44.556-2.038a3.868 3.868 0 0 1 1.526-1.426c.655-.342 1.387-.513 2.195-.513a4.47 4.47 0 0 1 2.053.47 3.547 3.547 0 0 1 1.496 1.355c.371.589.556 1.292.556 2.11l-5.516 1.054c.294.618.879.927 1.753.927Zm-.328-3.992c-.466 0-.846.148-1.14.442-.295.285-.461.699-.499 1.24l3.136-.613a1.406 1.406 0 0 0-.542-.77c-.266-.199-.584-.299-.955-.299ZM154.833 56.117c-.855 0-1.62-.171-2.295-.513a3.908 3.908 0 0 1-1.583-1.426c-.37-.608-.555-1.297-.555-2.067 0-.77.185-1.454.555-2.053a3.81 3.81 0 0 1 1.583-1.41c.675-.343 1.44-.514 2.295-.514.874 0 1.63.19 2.267.57.636.37 1.088.889 1.354 1.554l-2.096 1.07c-.351-.695-.865-1.042-1.539-1.042-.485 0-.889.162-1.212.485-.314.323-.47.77-.47 1.34 0 .58.156 1.036.47 1.369.323.323.727.484 1.212.484.674 0 1.188-.346 1.539-1.04l2.096 1.069a3.155 3.155 0 0 1-1.354 1.568c-.637.37-1.393.556-2.267.556ZM167.541 48.262v7.727h-2.58v-.813a2.856 2.856 0 0 1-1.026.699c-.39.161-.808.242-1.255.242-1.007 0-1.81-.295-2.409-.884-.589-.59-.884-1.473-.884-2.651v-4.32h2.709v3.878c0 1.112.432 1.668 1.297 1.668.428 0 .774-.148 1.04-.442.267-.304.4-.765.4-1.383v-3.72h2.708ZM173.237 56.117c-.855 0-1.621-.171-2.295-.513a3.908 3.908 0 0 1-1.583-1.426c-.37-.608-.556-1.297-.556-2.067 0-.77.186-1.454.556-2.053a3.81 3.81 0 0 1 1.583-1.41c.674-.343 1.44-.514 2.295-.514.874 0 1.63.19 2.266.57.637.37 1.089.889 1.355 1.554l-2.096 1.07c-.351-.695-.865-1.042-1.539-1.042-.485 0-.889.162-1.212.485-.314.323-.471.77-.471 1.34 0 .58.157 1.036.471 1.369.323.323.727.484 1.212.484.674 0 1.188-.346 1.539-1.04l2.096 1.069a3.153 3.153 0 0 1-1.355 1.568c-.636.37-1.392.556-2.266.556ZM188.055 48.134c.95 0 1.706.285 2.266.855.571.57.856 1.43.856 2.58v4.42h-2.709V52.01c0-.541-.104-.94-.313-1.197-.2-.257-.485-.385-.856-.385-.408 0-.736.143-.983.428-.247.285-.371.717-.371 1.297v3.835h-2.708V52.01c0-1.055-.39-1.582-1.169-1.582-.419 0-.751.143-.998.428-.247.285-.371.717-.371 1.297v3.835h-2.708v-7.727h2.58v.813a2.651 2.651 0 0 1 1.012-.699 3.421 3.421 0 0 1 1.297-.242c.542 0 1.027.1 1.454.3.428.199.775.503 1.041.912.304-.39.689-.69 1.155-.898a3.68 3.68 0 0 1 1.525-.314ZM196.908 54.05c.371 0 .689-.052.955-.157.276-.105.551-.276.827-.513l1.411 1.482c-.732.837-1.824 1.255-3.279 1.255-.902 0-1.696-.171-2.38-.513-.684-.342-1.217-.818-1.597-1.426-.37-.608-.556-1.297-.556-2.067 0-.76.186-1.44.556-2.038a3.868 3.868 0 0 1 1.526-1.426c.655-.342 1.387-.513 2.195-.513a4.47 4.47 0 0 1 2.053.47 3.547 3.547 0 0 1 1.496 1.355c.371.589.556 1.292.556 2.11l-5.516 1.054c.294.618.879.927 1.753.927Zm-.328-3.992c-.466 0-.846.148-1.14.442-.295.285-.461.699-.499 1.24l3.136-.613a1.406 1.406 0 0 0-.542-.77c-.266-.199-.584-.299-.955-.299ZM209.461 55.989v-4.063l-1.981 3.378h-1.155l-1.924-3.435v4.12h-2.438v-7.727h2.851l2.153 4.035 2.366-4.035h2.552l.014 7.727h-2.438ZM217.404 56.217c-2.556 0-3.834-1.098-3.834-3.293v-4.662h2.694v2.452c.2-.133.466-.242.798-.328a4.833 4.833 0 0 1 1.169-.128c.951 0 1.697.242 2.238.727.542.475.813 1.183.813 2.124 0 1.017-.352 1.791-1.055 2.324-.694.522-1.635.784-2.823.784Zm4.519-7.955h2.709v7.727h-2.709v-7.727Zm-4.519 6.102c.371 0 .651-.11.841-.328.191-.219.286-.509.286-.87 0-.352-.095-.627-.286-.827-.19-.2-.465-.3-.826-.3-.257 0-.485.048-.685.143a1.188 1.188 0 0 0-.47.385v.6c0 .37.095.664.285.883.19.209.475.314.855.314Z" fill="#000"/><path d="m9.345 42.714 8.005-18.439h2.686v5.217l-5.681 13.222h4.235V40.34c0-.579.964-.62 1.446-.569v7.283c-1.322 0-1.515-.448-1.446-.671v-2.066h-5.01L1.184 72H.72l3.15-9.555s-2.788-1.085-1.859-3.41c.93-2.323 6.508-14.72 6.508-14.72H2.01v-1.6h7.335Z" fill="#F90"/><path d="m30.211 42.714-8.005-18.439H19.52v5.217L25.2 42.714h-4.235V40.34c0-.579-.964-.62-1.446-.569v7.283c1.322 0 1.515-.448 1.446-.671v-2.066h5.01L38.372 72h.465l-3.15-9.555s2.788-1.085 1.859-3.41c-.93-2.323-6.508-14.72-6.508-14.72h6.508v-1.6H30.21Z" fill="#F90"/><path fill-rule="evenodd" clip-rule="evenodd" d="M19.83 21.59a5.475 5.475 0 1 0 0-10.95 5.475 5.475 0 0 0 0 10.95Zm0 2.995a8.47 8.47 0 1 0 0-16.94 8.47 8.47 0 0 0 0 16.94Z" fill="#000"/><path d="M18.28 0h3.1v8.16h-3.1V0Z" fill="#000"/></symbol></svg>